<svg width="143" height="60" viewBox="0 0 143 60" fill="none" xmlns="http://www.w3.org/2000/svg">
<rect width="143" height="60" rx="10" fill="#D1F386"/>
<path d="M30 46.6667C39.2048 46.6667 46.6667 39.2048 46.6667 30C46.6667 20.7953 39.2048 13.3333 30 13.3333C20.7953 13.3333 13.3333 20.7953 13.3333 30C13.3333 39.2048 20.7953 46.6667 30 46.6667Z" stroke="#614BC3" stroke-width="2" stroke-linecap="round" stroke-linejoin="round"/>
<path d="M33.85 23.3333L43.4167 39.9" stroke="#614BC3" stroke-width="2" stroke-linecap="round" stroke-linejoin="round"/>
<path d="M26.15 23.3333H45.2833" stroke="#614BC3" stroke-width="2" stroke-linecap="round" stroke-linejoin="round"/>
<path d="M22.3 30L31.8667 13.4333" stroke="#614BC3" stroke-width="2" stroke-linecap="round" stroke-linejoin="round"/>
<path d="M26.15 36.6667L16.5833 20.1" stroke="#614BC3" stroke-width="2" stroke-linecap="round" stroke-linejoin="round"/>
<path d="M33.85 36.6667H14.7167" stroke="#614BC3" stroke-width="2" stroke-linecap="round" stroke-linejoin="round"/>
<path d="M37.7 30L28.1333 46.5667" stroke="#614BC3" stroke-width="2" stroke-linecap="round" stroke-linejoin="round"/>
<path d="M62.959 24.5098C62.2754 24.5098 61.6634 24.6335 61.123 24.8809C60.5892 25.1283 60.1367 25.4863 59.7656 25.9551C59.3945 26.4173 59.1113 26.9805 58.916 27.6445C58.7207 28.3021 58.623 29.0443 58.623 29.8711C58.623 30.9779 58.7793 31.9316 59.0918 32.7324C59.4043 33.5267 59.8796 34.1387 60.5176 34.5684C61.1556 34.9915 61.9629 35.2031 62.9395 35.2031C63.5449 35.2031 64.1341 35.1445 64.707 35.0273C65.2799 34.9102 65.8724 34.7507 66.4844 34.5488V36.541C65.9049 36.7689 65.319 36.9349 64.7266 37.0391C64.1341 37.1432 63.4505 37.1953 62.6758 37.1953C61.2174 37.1953 60.0065 36.8926 59.043 36.2871C58.0859 35.6816 57.3698 34.8288 56.8945 33.7285C56.4258 32.6283 56.1914 31.3392 56.1914 29.8613C56.1914 28.7806 56.3411 27.791 56.6406 26.8926C56.9401 25.9941 57.3763 25.2194 57.9492 24.5684C58.5221 23.9108 59.2285 23.4062 60.0684 23.0547C60.9147 22.6966 61.8815 22.5176 62.9688 22.5176C63.6849 22.5176 64.388 22.599 65.0781 22.7617C65.7747 22.918 66.4193 23.1426 67.0117 23.4355L66.1914 25.3691C65.6966 25.1348 65.179 24.9329 64.6387 24.7637C64.0983 24.5944 63.5384 24.5098 62.959 24.5098ZM73.5547 25.9844C74.9219 25.9844 75.9538 26.2871 76.6504 26.8926C77.3535 27.498 77.7051 28.4421 77.7051 29.7246V37H76.0742L75.6348 35.4668H75.5566C75.2507 35.8574 74.9349 36.1797 74.6094 36.4336C74.2839 36.6875 73.9062 36.8763 73.4766 37C73.0534 37.1302 72.5358 37.1953 71.9238 37.1953C71.2793 37.1953 70.7031 37.0781 70.1953 36.8438C69.6875 36.6029 69.2871 36.2383 68.9941 35.75C68.7012 35.2617 68.5547 34.6432 68.5547 33.8945C68.5547 32.7812 68.9681 31.9447 69.7949 31.3848C70.6283 30.8249 71.8848 30.5156 73.5645 30.457L75.4395 30.3887V29.8223C75.4395 29.0736 75.2637 28.5397 74.9121 28.2207C74.5671 27.9017 74.0788 27.7422 73.4473 27.7422C72.9069 27.7422 72.3828 27.8203 71.875 27.9766C71.3672 28.1328 70.8724 28.3249 70.3906 28.5527L69.6484 26.9316C70.1758 26.6517 70.7747 26.4238 71.4453 26.248C72.1224 26.0723 72.8255 25.9844 73.5547 25.9844ZM75.4297 31.834L74.0332 31.8828C72.8874 31.9219 72.0833 32.1172 71.6211 32.4688C71.1589 32.8203 70.9277 33.3021 70.9277 33.9141C70.9277 34.4479 71.0872 34.8385 71.4062 35.0859C71.7253 35.3268 72.1452 35.4473 72.666 35.4473C73.4603 35.4473 74.1178 35.2227 74.6387 34.7734C75.166 34.3177 75.4297 33.6504 75.4297 32.7715V31.834ZM86.4648 25.9844C87.7474 25.9844 88.776 26.4531 89.5508 27.3906C90.332 28.3281 90.7227 29.7214 90.7227 31.5703C90.7227 32.7943 90.5404 33.8262 90.1758 34.666C89.8177 35.4993 89.3132 36.1309 88.6621 36.5605C88.0176 36.9837 87.2656 37.1953 86.4062 37.1953C85.8594 37.1953 85.3841 37.1237 84.9805 36.9805C84.5768 36.8372 84.2318 36.6517 83.9453 36.4238C83.6589 36.1895 83.418 35.9355 83.2227 35.6621H83.0859C83.1185 35.9225 83.1478 36.2122 83.1738 36.5312C83.2064 36.8438 83.2227 37.1302 83.2227 37.3906V41.7949H80.918V26.1895H82.793L83.1152 27.6836H83.2227C83.4245 27.3776 83.6686 27.0944 83.9551 26.834C84.248 26.5736 84.5996 26.3685 85.0098 26.2188C85.4264 26.0625 85.9115 25.9844 86.4648 25.9844ZM85.8496 27.8594C85.2181 27.8594 84.7103 27.9863 84.3262 28.2402C83.9486 28.4876 83.6719 28.862 83.4961 29.3633C83.3268 29.8646 83.2357 30.4928 83.2227 31.248V31.5703C83.2227 32.3711 83.304 33.0514 83.4668 33.6113C83.6361 34.1647 83.9128 34.5879 84.2969 34.8809C84.6875 35.1673 85.2148 35.3105 85.8789 35.3105C86.4388 35.3105 86.901 35.1576 87.2656 34.8516C87.6367 34.5456 87.9134 34.1094 88.0957 33.543C88.278 32.9766 88.3691 32.3092 88.3691 31.541C88.3691 30.3757 88.1608 29.4707 87.7441 28.8262C87.334 28.1816 86.7025 27.8594 85.8496 27.8594ZM97.4023 35.3398C97.7018 35.3398 97.998 35.3138 98.291 35.2617C98.584 35.2031 98.8509 35.1348 99.0918 35.0566V36.7949C98.8379 36.9056 98.5091 37 98.1055 37.0781C97.7018 37.1562 97.2819 37.1953 96.8457 37.1953C96.2337 37.1953 95.6836 37.0944 95.1953 36.8926C94.707 36.6842 94.3197 36.3294 94.0332 35.8281C93.7467 35.3268 93.6035 34.6335 93.6035 33.748V27.9375H92.1289V26.9121L93.7109 26.1016L94.4629 23.7871H95.9082V26.1895H99.0039V27.9375H95.9082V33.7188C95.9082 34.2656 96.0449 34.6725 96.3184 34.9395C96.5918 35.2064 96.9531 35.3398 97.4023 35.3398ZM110.713 26.1895V37H108.906L108.594 35.5449H108.467C108.239 35.916 107.949 36.2253 107.598 36.4727C107.246 36.7135 106.855 36.8926 106.426 37.0098C105.996 37.1335 105.544 37.1953 105.068 37.1953C104.255 37.1953 103.558 37.0586 102.979 36.7852C102.406 36.5052 101.966 36.0755 101.66 35.4961C101.354 34.9167 101.201 34.168 101.201 33.25V26.1895H103.506V32.8203C103.506 33.6602 103.675 34.2884 104.014 34.7051C104.359 35.1217 104.893 35.3301 105.615 35.3301C106.312 35.3301 106.865 35.1868 107.275 34.9004C107.686 34.6139 107.975 34.1908 108.145 33.6309C108.32 33.071 108.408 32.3841 108.408 31.5703V26.1895H110.713ZM119.482 25.9844C119.665 25.9844 119.863 25.9941 120.078 26.0137C120.293 26.0332 120.479 26.0592 120.635 26.0918L120.42 28.2402C120.283 28.2012 120.114 28.1719 119.912 28.1523C119.717 28.1328 119.541 28.123 119.385 28.123C118.975 28.123 118.584 28.1914 118.213 28.3281C117.842 28.4583 117.513 28.6602 117.227 28.9336C116.94 29.2005 116.715 29.5358 116.553 29.9395C116.39 30.3431 116.309 30.8118 116.309 31.3457V37H114.004V26.1895H115.801L116.113 28.0938H116.221C116.436 27.7096 116.702 27.3581 117.021 27.0391C117.34 26.7201 117.705 26.4661 118.115 26.2773C118.532 26.082 118.988 25.9844 119.482 25.9844ZM126.943 25.9844C127.907 25.9844 128.734 26.1829 129.424 26.5801C130.114 26.9772 130.645 27.5404 131.016 28.2695C131.387 28.9987 131.572 29.8711 131.572 30.8867V32.1172H124.355C124.382 33.1654 124.661 33.9727 125.195 34.5391C125.736 35.1055 126.491 35.3887 127.461 35.3887C128.151 35.3887 128.77 35.3236 129.316 35.1934C129.87 35.0566 130.439 34.8581 131.025 34.5977V36.4629C130.485 36.7168 129.935 36.9023 129.375 37.0195C128.815 37.1367 128.145 37.1953 127.363 37.1953C126.302 37.1953 125.368 36.9902 124.561 36.5801C123.76 36.1634 123.132 35.5449 122.676 34.7246C122.227 33.9043 122.002 32.8854 122.002 31.668C122.002 30.457 122.207 29.4284 122.617 28.582C123.027 27.7357 123.604 27.0911 124.346 26.6484C125.088 26.2057 125.954 25.9844 126.943 25.9844ZM126.943 27.7129C126.221 27.7129 125.635 27.9473 125.186 28.416C124.743 28.8848 124.482 29.5716 124.404 30.4766H129.326C129.32 29.9362 129.229 29.4577 129.053 29.041C128.883 28.6243 128.623 28.2988 128.271 28.0645C127.926 27.8301 127.484 27.7129 126.943 27.7129Z" fill="#614BC3"/>
</svg>
